<svg xmlns="http://www.w3.org/2000/svg" width="50.992" height="81.186" viewBox="0 0 50.992 81.186">
  <path id="Intersection_1" data-name="Intersection 1" d="M1652.22-1150.908v0h-26.451v0l-.1,0a2.727,2.727,0,0,1-2.777-2.673,2.727,2.727,0,0,1,2.777-2.673c.033,0,.067,0,.1,0v-.034h10.487v-8.126c-12.7-1.42-22.267-11.778-22.252-24.08,0-.117.019-.224.021-.331v-6.127a2.686,2.686,0,0,1-.021-.331,2.727,2.727,0,0,1,2.777-2.673,2.727,2.727,0,0,1,2.777,2.673,2.538,2.538,0,0,1-.014.264v7.36h-.014v.022c0,.1.014.193.014.289v1h.052c.825,9.508,8.909,16.917,18.814,17.248h1.122c9.909-.325,18-7.737,18.819-17.248h.067v-8.906h.022v-.032a2.726,2.726,0,0,1,2.777-2.673,2.727,2.727,0,0,1,2.777,2.673c0,.077,0,.153-.01.229v6.561h-.035c.009,12.281-9.527,22.626-22.2,24.08v8.126h10.464v.034l.112,0a2.727,2.727,0,0,1,2.777,2.673,2.727,2.727,0,0,1-2.777,2.673Zm-22.163-25.447a13.926,13.926,0,0,1-5.279-7.4,19.334,19.334,0,0,1-.688-4.309c-.1-1.615-.088-3.315-.088-4.929v-13.516c0-1.6.009-8.693,0-9.89a14.827,14.827,0,0,1,.778-4.309,14.679,14.679,0,0,1,14.21-10.385,14.678,14.678,0,0,1,14.21,10.385,19.851,19.851,0,0,1,.778,4.309c.1,1.615,0,8.286,0,9.89v13.516h0c0,1.615,0,3.315-.089,4.929a19.615,19.615,0,0,1-.688,4.309,14.023,14.023,0,0,1-5.278,7.4,14.76,14.76,0,0,1-8.932,2.983A14.759,14.759,0,0,1,1630.057-1176.355Z" transform="translate(-1613.504 1231.593)" fill="#fff" stroke="#707070" stroke-width="1"/>
</svg>
