<svg id="Music_Waves" data-name="Music Waves" xmlns="http://www.w3.org/2000/svg" xmlns:xlink="http://www.w3.org/1999/xlink" width="270" height="85" viewBox="0 0 270 85">
  <defs>
    <clipPath id="clip-path">
      <path id="Mask" d="M214.215,83.884V1.116a1.116,1.116,0,1,1,2.231,0V83.884a1.116,1.116,0,1,1-2.231,0Zm42.843-8V9.116a1.116,1.116,0,1,1,2.231,0V75.884a1.116,1.116,0,1,1-2.231,0Zm-224.925,0V9.116a1.116,1.116,0,1,1,2.231,0V75.884a1.116,1.116,0,1,1-2.231,0Zm187.438-1V10.116a1.116,1.116,0,1,1,2.231,0V74.884a1.116,1.116,0,1,1-2.231,0Zm-85.686-2V12.116a1.116,1.116,0,0,1,2.232,0V72.885a1.116,1.116,0,1,1-2.232,0Zm-48.2,0V12.116a1.116,1.116,0,0,1,2.231,0V72.885a1.116,1.116,0,1,1-2.231,0Zm85.685-1V13.116a1.116,1.116,0,0,1,2.232,0V71.885a1.116,1.116,0,0,1-2.232,0Zm91.041-3V16.116a1.116,1.116,0,0,1,2.232,0V68.885a1.116,1.116,0,0,1-2.232,0Zm-21.421,0V16.116a1.116,1.116,0,1,1,2.231,0V68.885a1.116,1.116,0,0,1-2.231,0Zm-32.133,0V16.116a1.116,1.116,0,1,1,2.232,0V68.885a1.116,1.116,0,0,1-2.232,0Zm-117.818,0V16.116a1.116,1.116,0,1,1,2.231,0V68.885a1.116,1.116,0,0,1-2.231,0Zm-64.265,0V16.116a1.116,1.116,0,1,1,2.232,0V68.885a1.116,1.116,0,0,1-2.232,0Zm133.885-3V19.116a1.116,1.116,0,1,1,2.231,0V65.884a1.116,1.116,0,1,1-2.231,0Zm-21.422,0V19.116a1.116,1.116,0,1,1,2.231,0V65.884a1.116,1.116,0,1,1-2.231,0Zm-64.264,0V19.116a1.116,1.116,0,1,1,2.231,0V65.884a1.116,1.116,0,1,1-2.231,0Zm171.372-3V22.116a1.116,1.116,0,0,1,2.231,0V62.885a1.116,1.116,0,1,1-2.231,0Zm-91.041,0V22.116a1.116,1.116,0,0,1,2.231,0V62.885a1.116,1.116,0,1,1-2.231,0Zm-74.975,0V22.116a1.116,1.116,0,0,1,2.232,0V62.885a1.116,1.116,0,1,1-2.232,0Zm-10.711,0V22.116a1.116,1.116,0,0,1,2.232,0V62.885a1.116,1.116,0,1,1-2.232,0Zm-21.421,0V22.116a1.116,1.116,0,0,1,2.231,0V62.885a1.116,1.116,0,1,1-2.231,0Zm-32.133,0V22.116a1.116,1.116,0,0,1,2.232,0V62.885a1.116,1.116,0,1,1-2.232,0Zm208.859-2V24.116a1.116,1.116,0,1,1,2.232,0V60.885a1.116,1.116,0,0,1-2.232,0Zm-21.421,0V24.116a1.116,1.116,0,1,1,2.231,0V60.885a1.116,1.116,0,0,1-2.231,0Zm-96.4-2V26.116a1.116,1.116,0,1,1,2.232,0V58.884a1.116,1.116,0,1,1-2.232,0Zm-85.685,0V26.116a1.116,1.116,0,1,1,2.231,0V58.884a1.116,1.116,0,1,1-2.231,0Zm246.347-2V28.116a1.116,1.116,0,1,1,2.231,0V56.885a1.116,1.116,0,1,1-2.231,0Zm-32.133,0V28.116a1.116,1.116,0,0,1,2.232,0V56.885a1.116,1.116,0,0,1-2.232,0Zm-91.041,0V28.116a1.116,1.116,0,1,1,2.232,0V56.885a1.116,1.116,0,1,1-2.232,0Zm-26.777,0V28.116a1.116,1.116,0,1,1,2.232,0V56.885a1.116,1.116,0,0,1-2.232,0Zm58.91-1V29.116a1.116,1.116,0,0,1,2.231,0V55.885a1.116,1.116,0,1,1-2.231,0Zm-80.33,0V29.116a1.116,1.116,0,0,1,2.231,0V55.885a1.116,1.116,0,1,1-2.231,0Zm-32.133,0V29.116a1.116,1.116,0,0,1,2.231,0V55.885a1.116,1.116,0,1,1-2.231,0Zm-21.422-2V31.116a1.116,1.116,0,0,1,2.232,0V53.885a1.116,1.116,0,1,1-2.232,0Zm-37.487,0V31.116a1.116,1.116,0,0,1,2.231,0V53.885a1.116,1.116,0,1,1-2.231,0Zm246.347-1V32.117a1.116,1.116,0,1,1,2.231,0V52.885a1.116,1.116,0,0,1-2.231,0Zm-53.555,0V32.117a1.116,1.116,0,0,1,2.232,0V52.885a1.116,1.116,0,0,1-2.232,0Zm32.133-1V33.116a1.116,1.116,0,1,1,2.231,0V51.885a1.116,1.116,0,0,1-2.231,0Zm-80.33,0V33.116a1.116,1.116,0,1,1,2.231,0V51.885a1.116,1.116,0,0,1-2.231,0Zm-37.488,0V33.116a1.116,1.116,0,1,1,2.231,0V51.885a1.116,1.116,0,0,1-2.231,0Zm69.62-2V35.116a1.116,1.116,0,1,1,2.231,0V49.884a1.116,1.116,0,1,1-2.231,0Zm-80.33,0V35.116a1.116,1.116,0,1,1,2.231,0V49.884a1.116,1.116,0,1,1-2.231,0Zm-42.843,0V35.116a1.116,1.116,0,1,1,2.231,0V49.884a1.116,1.116,0,1,1-2.231,0Zm-21.422,0V35.116a1.116,1.116,0,1,1,2.231,0V49.884a1.116,1.116,0,1,1-2.231,0ZM0,49.884V35.116a1.116,1.116,0,1,1,2.231,0V49.884a1.116,1.116,0,1,1-2.231,0Zm187.439-1V36.116a1.116,1.116,0,1,1,2.231,0V48.884a1.116,1.116,0,1,1-2.231,0Zm-21.422,0V36.116a1.116,1.116,0,1,1,2.231,0V48.884a1.116,1.116,0,1,1-2.231,0Zm-37.488,0V36.116a1.116,1.116,0,1,1,2.231,0V48.884a1.116,1.116,0,1,1-2.231,0Zm-74.975-2V38.116a1.116,1.116,0,0,1,2.232,0v8.769a1.116,1.116,0,0,1-2.232,0Zm-42.843,0V38.116a1.116,1.116,0,0,1,2.231,0v8.769a1.116,1.116,0,1,1-2.231,0Zm182.083-2V40.116a1.116,1.116,0,0,1,2.231,0v4.769a1.116,1.116,0,1,1-2.231,0Zm-69.619,0V40.116a1.116,1.116,0,0,1,2.231,0v4.769a1.116,1.116,0,1,1-2.231,0Z" transform="translate(82 218)" fill="#fff"/>
    </clipPath>
  </defs>
  <g id="Waves" transform="translate(-82 -218)" clip-path="url(#clip-path)">
    <path id="Bars" d="M214.215,83.884V1.116a1.116,1.116,0,1,1,2.231,0V83.884a1.116,1.116,0,1,1-2.231,0Zm42.843-8V9.116a1.116,1.116,0,1,1,2.231,0V75.884a1.116,1.116,0,1,1-2.231,0Zm-224.925,0V9.116a1.116,1.116,0,1,1,2.231,0V75.884a1.116,1.116,0,1,1-2.231,0Zm187.438-1V10.116a1.116,1.116,0,1,1,2.231,0V74.884a1.116,1.116,0,1,1-2.231,0Zm-85.686-2V12.116a1.116,1.116,0,0,1,2.232,0V72.885a1.116,1.116,0,1,1-2.232,0Zm-48.2,0V12.116a1.116,1.116,0,0,1,2.231,0V72.885a1.116,1.116,0,1,1-2.231,0Zm85.685-1V13.116a1.116,1.116,0,0,1,2.232,0V71.885a1.116,1.116,0,0,1-2.232,0Zm91.041-3V16.116a1.116,1.116,0,0,1,2.232,0V68.885a1.116,1.116,0,0,1-2.232,0Zm-21.421,0V16.116a1.116,1.116,0,1,1,2.231,0V68.885a1.116,1.116,0,0,1-2.231,0Zm-32.133,0V16.116a1.116,1.116,0,1,1,2.232,0V68.885a1.116,1.116,0,0,1-2.232,0Zm-117.818,0V16.116a1.116,1.116,0,1,1,2.231,0V68.885a1.116,1.116,0,0,1-2.231,0Zm-64.265,0V16.116a1.116,1.116,0,1,1,2.232,0V68.885a1.116,1.116,0,0,1-2.232,0Zm133.885-3V19.116a1.116,1.116,0,1,1,2.231,0V65.884a1.116,1.116,0,1,1-2.231,0Zm-21.422,0V19.116a1.116,1.116,0,1,1,2.231,0V65.884a1.116,1.116,0,1,1-2.231,0Zm-64.264,0V19.116a1.116,1.116,0,1,1,2.231,0V65.884a1.116,1.116,0,1,1-2.231,0Zm171.372-3V22.116a1.116,1.116,0,0,1,2.231,0V62.885a1.116,1.116,0,1,1-2.231,0Zm-91.041,0V22.116a1.116,1.116,0,0,1,2.231,0V62.885a1.116,1.116,0,1,1-2.231,0Zm-74.975,0V22.116a1.116,1.116,0,0,1,2.232,0V62.885a1.116,1.116,0,1,1-2.232,0Zm-10.711,0V22.116a1.116,1.116,0,0,1,2.232,0V62.885a1.116,1.116,0,1,1-2.232,0Zm-21.421,0V22.116a1.116,1.116,0,0,1,2.231,0V62.885a1.116,1.116,0,1,1-2.231,0Zm-32.133,0V22.116a1.116,1.116,0,0,1,2.232,0V62.885a1.116,1.116,0,1,1-2.232,0Zm208.859-2V24.116a1.116,1.116,0,1,1,2.232,0V60.885a1.116,1.116,0,0,1-2.232,0Zm-21.421,0V24.116a1.116,1.116,0,1,1,2.231,0V60.885a1.116,1.116,0,0,1-2.231,0Zm-96.4-2V26.116a1.116,1.116,0,1,1,2.232,0V58.884a1.116,1.116,0,1,1-2.232,0Zm-85.685,0V26.116a1.116,1.116,0,1,1,2.231,0V58.884a1.116,1.116,0,1,1-2.231,0Zm246.347-2V28.116a1.116,1.116,0,1,1,2.231,0V56.885a1.116,1.116,0,1,1-2.231,0Zm-32.133,0V28.116a1.116,1.116,0,0,1,2.232,0V56.885a1.116,1.116,0,0,1-2.232,0Zm-91.041,0V28.116a1.116,1.116,0,1,1,2.232,0V56.885a1.116,1.116,0,1,1-2.232,0Zm-26.777,0V28.116a1.116,1.116,0,1,1,2.232,0V56.885a1.116,1.116,0,0,1-2.232,0Zm58.91-1V29.116a1.116,1.116,0,0,1,2.231,0V55.885a1.116,1.116,0,1,1-2.231,0Zm-80.33,0V29.116a1.116,1.116,0,0,1,2.231,0V55.885a1.116,1.116,0,1,1-2.231,0Zm-32.133,0V29.116a1.116,1.116,0,0,1,2.231,0V55.885a1.116,1.116,0,1,1-2.231,0Zm-21.422-2V31.116a1.116,1.116,0,0,1,2.232,0V53.885a1.116,1.116,0,1,1-2.232,0Zm-37.487,0V31.116a1.116,1.116,0,0,1,2.231,0V53.885a1.116,1.116,0,1,1-2.231,0Zm246.347-1V32.117a1.116,1.116,0,1,1,2.231,0V52.885a1.116,1.116,0,0,1-2.231,0Zm-53.555,0V32.117a1.116,1.116,0,0,1,2.232,0V52.885a1.116,1.116,0,0,1-2.232,0Zm32.133-1V33.116a1.116,1.116,0,1,1,2.231,0V51.885a1.116,1.116,0,0,1-2.231,0Zm-80.33,0V33.116a1.116,1.116,0,1,1,2.231,0V51.885a1.116,1.116,0,0,1-2.231,0Zm-37.488,0V33.116a1.116,1.116,0,1,1,2.231,0V51.885a1.116,1.116,0,0,1-2.231,0Zm69.62-2V35.116a1.116,1.116,0,1,1,2.231,0V49.884a1.116,1.116,0,1,1-2.231,0Zm-80.33,0V35.116a1.116,1.116,0,1,1,2.231,0V49.884a1.116,1.116,0,1,1-2.231,0Zm-42.843,0V35.116a1.116,1.116,0,1,1,2.231,0V49.884a1.116,1.116,0,1,1-2.231,0Zm-21.422,0V35.116a1.116,1.116,0,1,1,2.231,0V49.884a1.116,1.116,0,1,1-2.231,0ZM0,49.884V35.116a1.116,1.116,0,1,1,2.231,0V49.884a1.116,1.116,0,1,1-2.231,0Zm187.439-1V36.116a1.116,1.116,0,1,1,2.231,0V48.884a1.116,1.116,0,1,1-2.231,0Zm-21.422,0V36.116a1.116,1.116,0,1,1,2.231,0V48.884a1.116,1.116,0,1,1-2.231,0Zm-37.488,0V36.116a1.116,1.116,0,1,1,2.231,0V48.884a1.116,1.116,0,1,1-2.231,0Zm-74.975-2V38.116a1.116,1.116,0,0,1,2.232,0v8.769a1.116,1.116,0,0,1-2.232,0Zm-42.843,0V38.116a1.116,1.116,0,0,1,2.231,0v8.769a1.116,1.116,0,1,1-2.231,0Zm182.083-2V40.116a1.116,1.116,0,0,1,2.231,0v4.769a1.116,1.116,0,1,1-2.231,0Zm-69.619,0V40.116a1.116,1.116,0,0,1,2.231,0v4.769a1.116,1.116,0,1,1-2.231,0Z" transform="translate(82 218)" fill="#fff"/>
    <path id="Fill" d="M0,0H3.564V98H0Z" transform="translate(78.435 212)" fill="#a51457"/>
  </g>
</svg>
