<svg xmlns="http://www.w3.org/2000/svg" width="27.132" height="27.978" viewBox="0 0 27.132 27.978">
  <path id="search" d="M26.763,24.188l-5.284-5.447a1.252,1.252,0,0,0-.9-.382h-.864a11.534,11.534,0,0,0,2.332-6.994A11.2,11.2,0,0,0,11.023,0,11.2,11.2,0,0,0,0,11.365,11.2,11.2,0,0,0,11.023,22.73a10.761,10.761,0,0,0,6.784-2.4v.891a1.331,1.331,0,0,0,.371.929l5.284,5.447a1.24,1.24,0,0,0,1.8,0l1.5-1.546A1.347,1.347,0,0,0,26.763,24.188Zm-15.74-5.83A6.887,6.887,0,0,1,4.24,11.365a6.887,6.887,0,0,1,6.784-6.994,6.887,6.887,0,0,1,6.784,6.994A6.887,6.887,0,0,1,11.023,18.359Z" fill="#9a9a9a"/>
</svg>
