<svg xmlns="http://www.w3.org/2000/svg" width="38.635" height="38.545" viewBox="0 0 38.635 38.545">
  <path id="sign-language" d="M7.682,35.366a2.3,2.3,0,0,1,2.447-2.129h5.233V32.82H4.788a2.3,2.3,0,0,1-2.447-2.129,2.268,2.268,0,0,1,2.4-2.047H15.362v-.418H2.448A2.3,2.3,0,0,1,0,26.1a2.268,2.268,0,0,1,2.4-2.047H15.362v-.418H4.848A2.3,2.3,0,0,1,2.4,21.505a2.268,2.268,0,0,1,2.4-2.047h14.16L16.35,17.807a1.918,1.918,0,0,1-.529-2.916,2.641,2.641,0,0,1,3.353-.461l10.363,6.556a2.419,2.419,0,0,1,1.186,2.026V33.325A2.606,2.606,0,0,1,28.5,35.763l-6.76,1.384a13.171,13.171,0,0,1-2.639.266H10.081A2.268,2.268,0,0,1,7.682,35.366Zm6.153-16.493h3.06l-.94-.595a2.465,2.465,0,0,1-.266-4.131L14.6,12.928a2.689,2.689,0,0,0-3.434-.372,1.908,1.908,0,0,0-.382,2.9l3.055,3.413Zm23.8-.154-.42-11.14a2.285,2.285,0,0,0-2.478-2.018,2.235,2.235,0,0,0-2.32,2.155l.106,2.807L23.822.805A2.648,2.648,0,0,0,20.491.416,1.943,1.943,0,0,0,20.063,3.4l6.459,7.216-.379.257-7.963-8.9A2.648,2.648,0,0,0,14.85,1.59a1.943,1.943,0,0,0-.427,2.987l7.934,8.863-.379.257L15.452,6.408a2.648,2.648,0,0,0-3.331-.389,1.943,1.943,0,0,0-.427,2.987l4.373,4.885a3.448,3.448,0,0,1,3.5.066l10.363,6.556a2.992,2.992,0,0,1,1.463,2.5v1.242l5.13-3.475a2.393,2.393,0,0,0,1.109-2.059Z" transform="translate(0.499 0.631)" fill="rgba(252,252,252,0.6)" stroke="#000" stroke-width="1"/>
</svg>
